<?xml version="1.0" encoding="utf-8"?>
<!-- Generator: Adobe Illustrator 19.1.0, SVG Export Plug-In . SVG Version: 6.00 Build 0)  -->
<svg version="1.1" id="Mountains" xmlns="http://www.w3.org/2000/svg" xmlns:xlink="http://www.w3.org/1999/xlink" x="0px" y="0px"
	 viewBox="0 0 3000 730" style="enable-background:new 0 0 3000 730;" xml:space="preserve">
<style type="text/css">
	.st0{fill:url(#SVGID_1_);}
	.st1{fill:url(#SVGID_2_);}
	.st2{fill:url(#SVGID_3_);}
	.st3{fill:#FFFFFF;}
</style>
<g>
	<linearGradient id="SVGID_1_" gradientUnits="userSpaceOnUse" x1="353.7045" y1="237.2686" x2="353.7045" y2="850.5485">
		<stop  offset="0" style="stop-color:#5A6073"/>
		<stop  offset="1" style="stop-color:#444856"/>
	</linearGradient>
	<path class="st0" d="M718.7,638l-30-126.7c0,0-75-64.2-93-90.6c-18-26.4-57-26.4-57-26.4L513.3,343c0,0-9.8-8.1-30.3-30
		c-20-21.3-29.8-42.7-41.8-48.7c-12-6-37.5-48.3-52.5-41c-15,7.3-47.4,34.7-47.4,34.7s-21.7,23.8-30.1,53.4l-2.6-2.1
		c0,0-63,87-90,108s-48,54-48,54s-48,39-54,57c-6,18-39,66-36,93s-18,81-24,90c-6,9-36,48-36,48l-39,60c0,0,0,63,15,63
		c15,0,93-6,93-6h270l243-24l123-12l-7-201.1C718.8,638.5,718.7,638,718.7,638z"/>
	<linearGradient id="SVGID_2_" gradientUnits="userSpaceOnUse" x1="1267.9366" y1="58.7375" x2="1267.9366" y2="813.2297">
		<stop  offset="0" style="stop-color:#5A6073"/>
		<stop  offset="1" style="stop-color:#444856"/>
	</linearGradient>
	<path class="st1" d="M1718.8,673c-3.5-12.5-17.3-28.7-47.9-49.6c-18-12.3-46.7-50.1-64.5-90c-17.8-39.9-74.3-66.1-97.5-75
		c-23.2-8.9-34.9-69.5-42-87c-7.1-17.5-13.5-56-37.5-81c-24-25-22.5-43-40.5-68c-18-25-52.5-56.4-55.5-77.4
		c-3-21-109.4-104.5-109.4-104.5s-85,33-88,48c-3,15-19,30-34,62c-3.6,7.7-36.8,45.6-45,57c-12.4,17.2-6.4,45.1-16,61
		c-11.7,19.3-50.7,40.5-57,57c-15,39-28.5,91.6-52.5,109S822.7,646.3,822.7,646.3l-36.4,116.6l-9.6,77.4l3,12c0,0,930.1,0,942.1,0
		s54,3,30-96C1740.4,709.3,1728.4,685.3,1718.8,673z"/>
	<linearGradient id="SVGID_3_" gradientUnits="userSpaceOnUse" x1="2232.313" y1="181.965" x2="2232.313" y2="830.707">
		<stop  offset="0" style="stop-color:#5A6073"/>
		<stop  offset="1" style="stop-color:#444856"/>
	</linearGradient>
	<path class="st2" d="M2612.9,768.4c0,0-6-75-24-102s3-30-3-45c-6-15-57-81-63-111c-6-30-57-84-57-84l-48-63c0,0-6-30-30-51
		c-24-21-46-54.3-46-54.3l-38.4-91.7c0,0-60.6,30-84.6,24.4s-30,62.6-39,67.3c-9,4.7-81,76.3-81,76.3s-27.7,49.9-21,72.3
		c6.7,22.4-60,14.1-60,14.1l-33,74.7c0,0-57,60.9-57,79.5c0,18.6-66,59.4-93,63.1c-27,3.7-12,92.3-12,92.3l28,134l795.1-9
		L2612.9,768.4z"/>
</g>
<path class="st3" d="M1099,148.5l-46,62l50-43l1,45l-19,87l65-117l14-51l20,118l34-46l33-114l4,34l-4,59c0,0,4.3-16.5,9.8-35.1
	c7.8-26.3,18.1-56.8,22.2-50.9c2.3,3.2,118,146,118,146s-79.3-123.8-74-119c6.7,6.1-11-28-35-50c-9.8-9-33-37-33-37l-61,2
	c0,0-23,3-31,15s-29,29-29,29S1104,132.5,1099,148.5z"/>
<path class="st3" d="M2184,249.5l25-32l17-4v15c0,0,14,8,10,19s31-14,31-14l12-5l15-1l16-1l31.9,31.5l-38.4-91.7
	c0,0-49.5,21.2-65.5,23.2s-34-10-38,5S2184,249.5,2184,249.5z"/>
<path class="st3" d="M317,293.6c0,0,56-46,62-44s26,43,26,43l10.3-43l25.7,15c0,0-28-42.1-50-45.1c0,0-25,10-28,12
	c-1.6,1.1-15.8,17.1-27.6,33.4C325.2,278.9,317,293.6,317,293.6z"/>
</svg>
