<?xml version="1.0" encoding="utf-8"?>
<!-- Generator: Adobe Illustrator 19.1.0, SVG Export Plug-In . SVG Version: 6.00 Build 0)  -->
<svg version="1.1" id="Mountains" xmlns="http://www.w3.org/2000/svg" xmlns:xlink="http://www.w3.org/1999/xlink" x="0px" y="0px"
	 viewBox="974 300 2560 194" style="enable-background:new 974 300 2560 194;" xml:space="preserve">
<style type="text/css">
	.st0{fill:#CAD04A;}
</style>
<path class="st0" d="M4003.4,494.1c0,0,4,41.1,0-38.9s-104-96-148-80s-72,28-116,28s-56,72-108,72s-104-96-200-104
	s-141.1,64.3-230,72s-264-71.2-370.1-76c-106.1-4.8-120,34.2-231,79.4c-111,45.1-192-13.5-258-47.4s-93.8-22.3-162.8-19.9
	c-69,2.4-74-36-119-35c-47.1,1-27,2-112.4,68.7c-145.1,113.2-187.4-22.9-242.7-23.7c-51.1-0.8-42,34-101.3,34.5
	c-72.5,0.6-92.9-94.8-189-99.7c-95.7-4.8-107.7,67.2-211.7,115.2c-95.1,43.9-188-16-316-48s-160-92-288-16s-92,122.9-92,122.9"/>
</svg>
