<?xml version="1.0" encoding="utf-8"?>
<!-- Generator: Adobe Illustrator 19.1.0, SVG Export Plug-In . SVG Version: 6.00 Build 0)  -->
<svg version="1.1" id="Mountains" xmlns="http://www.w3.org/2000/svg" xmlns:xlink="http://www.w3.org/1999/xlink" x="0px" y="0px"
	 viewBox="0 0 3000 564" style="enable-background:new 0 0 3000 564;" xml:space="preserve">
<style type="text/css">
	.st0{fill:url(#SVGID_1_);}
</style>
<linearGradient id="SVGID_1_" gradientUnits="userSpaceOnUse" x1="1558.1415" y1="-164.257" x2="1531.0342" y2="807.7339">
	<stop  offset="0" style="stop-color:#6E8C3B"/>
	<stop  offset="1" style="stop-color:#53692C"/>
</linearGradient>
<path class="st0" d="M3253,528c-6-58-52-68-116-64s-150,18-212-60s-76-162-200-6c-105.1,132.3-218.4,126.2-264.1,120
	c-40.1-10.1-75.1-24.3-99.9-44c-122.2-96.7-138-460-250-460s-173.4,200.5-316,310s-243.9-2.9-264.2-48.7s-63.6-73.8-109.5,7.6
	c-45.8,81.5-89.1,104.4-259.7,114.6c-170.6,10.2-193.5-86.6-244.4-89.1c-50.9-2.5-66.2,91.6-99.3,94.2
	c-17.8,1.4-49.2-39.4-82.9-28.6c-63.4,20.2-121.4,24.2-163.5,23.1c-42.2-1-68.5-7.1-68.5-7.1c-2.1,0.7-4.3,1.4-6.4,2.1
	c-48.7-6.1-101.3-17-129.6-36.1c-62-42-140,42-192,48S103,290-7,298s-124,96-166,126l-2,144l713.4,9.4c4.6,0.6,7.1,0.8,7.1,0.8
	s1608.4,43.4,2075.4,27.8c43.9,3.6,76-2.1,76-2.1C3195,638,3259,586,3253,528z"/>
</svg>
