<?xml version="1.0" encoding="utf-8"?>
<!-- Generator: Adobe Illustrator 19.1.0, SVG Export Plug-In . SVG Version: 6.00 Build 0)  -->
<svg version="1.1" id="Mountains" xmlns="http://www.w3.org/2000/svg" xmlns:xlink="http://www.w3.org/1999/xlink" x="0px" y="0px"
	 viewBox="0 0 3000 438" style="enable-background:new 0 0 3000 438;" xml:space="preserve">
<style type="text/css">
	.st0{fill:url(#SVGID_1_);}
</style>
<linearGradient id="SVGID_1_" gradientUnits="userSpaceOnUse" x1="1557.5509" y1="-61.9359" x2="1554.9136" y2="658.0491">
	<stop  offset="0" style="stop-color:#949FBE"/>
	<stop  offset="1" style="stop-color:#6F778F"/>
</linearGradient>
<path class="st0" d="M3160.7,408.7c-1-0.1-2.5-0.3-4.4-0.4c-3.4-1.4-8-2.9-14-4.5c-114.2-30-63.9-136-120-136
	c-46.7,0-124.7,55.4-214.4,83.8c-63,15-96,12-129,3c-97.7-26.8-99.7-124.1-125.4-203.5c-7-21.8-18.6-64.2-44.9-71.2
	c-34.4-9.2-60.6,40.1-73.8,63.7c-116.1,206.8-426.6,241.1-594.1,233.9c-88-3.7-100.8-86.9-122-107.9c-21.2-21-67-54.8-85.1-86.3
	c-21-36.7-37.7-55.1-61.9-47.9c-24.1,7.2-120.8,88.4-196.2,52.4c-7.1-8.3-13.1-19.6-17.7-34.7c-35.5-118-107.4-103.5-160.4-130.5
	s-135.7,42-161.8,87c-26.1,45-275.8,180-275.8,180l-0.1,0.8c-78.5,36.9-178.5,70-239.5,37.3c-112.2-60-166.4-202-224.5-198
	s-56.1,16-69.7,16c-13.5,0-7.7-10-19.4-22c-11.6-12-31-14-46.4-22s-23.2-36-58.1-6s-19.4,100-58.1,160s3.9,90-91,148
	c-18.7,11.5-28.1,19.8-31.1,25.8l-1.2,0.1c0,0-34.8,81-14.5,114s1991.4,0,1991.4,0l1306.3-15
	C3204.2,528.7,3236.1,417.7,3160.7,408.7z"/>
</svg>
