<?xml version="1.0" encoding="utf-8"?>
<!-- Generator: Adobe Illustrator 19.1.0, SVG Export Plug-In . SVG Version: 6.00 Build 0)  -->
<svg version="1.1" id="Mountains" xmlns="http://www.w3.org/2000/svg" xmlns:xlink="http://www.w3.org/1999/xlink" x="0px" y="0px"
	 viewBox="0 0 3000 460" style="enable-background:new 0 0 3000 460;" xml:space="preserve">
<style type="text/css">
	.st0{fill:#282B33;}
	.st1{fill:#FFFFFF;}
</style>
<path class="st0" d="M2359,333c-8-8-10-122-16-134c-3.9-7.8-12.8-35.6-18.6-54.2c0.9-81.9-101.5-102.8-113.4-109.5
	c-12-6.7-24,42.7-56,35.9s-40,62.9-57.1,63.6s-90.9,107.6-90.9,107.6s-34.5,109.7-42.2,161.2l-1.9,1.5l-12,72l376,2l76-2
	C2403,477,2367,341,2359,333z"/>
<path class="st0" d="M1869,449l-19.9-43.9l1.9,0L1831,309l-12-39c0,0-14-26-14-40s-6-44-6-44l-19-60l-26-31.2L1734,82l-11-23l-17-38
	h-13l-18-5h-36.2c-4.2,13-35.8,42-35.8,42l-22,36.8l-12,21.2l-47,56l-33,92l-0.6,4.2l-15.3,103.9l-4.5,34.5l1.4,0l-15,46.4l-12,26
	l438-2L1869,449z"/>
<path class="st0" d="M1150.6,418.6l-20.5-57.5c0,0-193.3-162.5-222.6-166.8s-50.9-53.2-50.9-53.2l-30.2-39.5c0,0-24.5-15.1-47.1,0
	c-9.6,6.4-27.7,8.1-32.2,17c-6,12.1-22,31-35.8,31c-24,0-64,96.2-64,96.2s-41.2,112.8-44.2,139.8c-3,27-6,37.5-6,37.5
	S587,459,577,475s584,4,584,4L1150.6,418.6z"/>
<polygon class="st1" points="1626,34.6 1614.7,46.7 1649,34.6 1655,41.8 1660,49 1675,34.6 1693,27 1693,42 1706,49 1723,59 
	1708.5,20.5 1692.5,19 1674.5,13.5 1638.8,16 "/>
<path class="st1" d="M2166,71c0,0,26-8,26-4s7,17,7,17l20-15l12-6l2-8l34,4c0,0-17-18-43-21c0,0-10-9-17-7S2172,67,2166,71z"/>
<path class="st1" d="M747.7,117c0,0,31.3-10,34.3-8s-8.3,17.3-8.3,17.3L803,111c0,0,12,23,14,19c0.9-1.8,6.3-9.4,13-9
	c7.8,0.4,18.3,8.7,18.3,8.7L830,105c0,0-4-12-34-11c-5.8,0.2-19-0.3-19-0.3L747.7,117z"/>
<path class="st0" d="M2356,471c0,0,84-126,126-142c29.7-11.3,37.5-31.9,42-47c2.8-9.3,8-13,8-13l22-40l18-54l22-54l40-34l40-16
	l50,18l11,45l35,25l10,15l12,64l32,42l7,24l3,35l26,54l26,64l6,34l-542,6L2356,471z"/>
<path class="st1" d="M2606,111c0,0,32-42,40-44s30-8,30-8l48,30l11,45l-37-41l-28-6l-24,24l-12-24L2606,111z"/>
<path class="st0" d="M423,465l-18-104l-48-54c0,0-24-28-26-38s-14-28-28-40c-13.8-11.8-29-54-31-63c-2.2-9.8-27-37-27-37l-52-22
	l-22,20l-16,50l-28,70l-24,44c0,0-40,48-48,50s-14,32-14,38s-20,68-20,68l-6,38h406L423,465z"/>
<polygon class="st1" points="171,123.5 164,148.5 181,124 193,119 220,139 222,128 254,140 245,129 193,101 "/>
</svg>
