<?xml version="1.0" encoding="utf-8"?>
<!-- Generator: Adobe Illustrator 19.1.0, SVG Export Plug-In . SVG Version: 6.00 Build 0)  -->
<svg version="1.1" id="Mountains" xmlns="http://www.w3.org/2000/svg" xmlns:xlink="http://www.w3.org/1999/xlink" x="0px" y="0px"
	 viewBox="0 0 2560 1580" style="enable-background:new 0 0 2560 1580;" xml:space="preserve">
<style type="text/css">
	.st0{fill:url(#SVGID_1_);}
</style>
<linearGradient id="SVGID_1_" gradientUnits="userSpaceOnUse" x1="1274.754" y1="249.9828" x2="1286.0033" y2="1498.6537">
	<stop  offset="0" style="stop-color:#CCE6C5"/>
	<stop  offset="0.4467" style="stop-color:#ADC6A6"/>
	<stop  offset="0.8309" style="stop-color:#8FA889"/>
</linearGradient>
<path class="st0" d="M2560,89.2c-133.9,4.8-310.2,21.4-393.4,29.8c-13.7,1-26.7,2.6-37.4,3.8c-6.4,0.7-9.9,1.1-9.9,1.1
	c-81.9,7.7-163.2,24-243.1,43c-104.5,24.8-208.8,54.9-308,96.4c-118.1,49.4-217.7,136.6-344.4,166.4
	c-105.9,24.8-198.2,2.9-288.9-59.9c-188-130-216-120-361.6-122c-264-3.6-346.3-40-346.3-40S123.4,179.4,0,144.2v1431.2l215,2.7
	l0,1.7h2094v-1.3l251-3.3V89.2z"/>
</svg>
