<?xml version="1.0" encoding="utf-8"?>
<!-- Generator: Adobe Illustrator 19.1.0, SVG Export Plug-In . SVG Version: 6.00 Build 0)  -->
<svg version="1.1" id="Layer_1" xmlns="http://www.w3.org/2000/svg" xmlns:xlink="http://www.w3.org/1999/xlink" x="0px" y="0px"
	 viewBox="0 0 612 234.7" style="enable-background:new 0 0 612 234.7;" xml:space="preserve">
<style type="text/css">
	.st0{clip-path:url(#SVGID_2_);fill:#ABD261;}
	.st1{clip-path:url(#SVGID_2_);fill:#689550;}
	.st2{fill:#565250;}
	.st3{clip-path:url(#SVGID_4_);fill:#565250;}
	.st4{clip-path:url(#SVGID_4_);fill:#ED1C24;}
	.st5{fill:#ED1C24;}
</style>
<g>
	<defs>
		<rect id="SVGID_1_" x="29.5" y="5.9" width="553.6" height="222.4"/>
	</defs>
	<clipPath id="SVGID_2_">
		<use xlink:href="#SVGID_1_"  style="overflow:visible;"/>
	</clipPath>
	<path class="st0" d="M35.8,29.1v0.4c0.6,0,0.2-0.4,0.6-0.4H35.8z M44.6,26.1c0.4,0,2.8,5.1,2.4,7.1c0.4-0.2,0.2,0.8,0.8,0.6
		c-0.2,0.4,1,9,1,9.2c0.4,0,0.6-1.2,0.6,0.4c0-0.2,0.2-0.2,0.2-0.2c0,1.6,1.4,10,0.8,10.4c0,0.2,0.8,0.6,0.2,0.6
		c0.4,0.2,0.2,0.4,0.4,0.6c0,0.2-0.2,0-0.4,0c0.2,0.6,1,9.2,0.6,9.6h0.2c0.2,0,0-0.2,0-0.4c0.4,0.2,0.6,1.4,0,1.4
		c0.2,0,1.4,19.3,1.4,19.5l2.2,15.9c0,0.8,2.2,30.1,2,30.9c0.8,0.6,0.2,1.6,0.4,2.2c11.2-7.1,17.5-19.1,26.3-28.3
		c1.6-2.2,3.7-3.5,5.3-5.5c0.4-0.4,0.4-1.4,1.2-1.4c0,0.8-1,1.4-0.6,2.2c-2.6,4.7-5.3,9.4-7.5,13.8L74.3,126c0,0-2.9,6.3-3.9,6.9
		c-0.4,2.2-1.6,3.5-2.4,5.3c0.2,0,0.2-0.2,0.2-0.4c-0.8,2.2-2.4,4.5-3.5,6.5c-1.8,0.6-2,3.1-3.9,3.3c-0.8,1.2-2.4,0.8-3.5,1.8
		c-2.8-0.2-5.5,0.8-7.7,0.6c-3.5-0.6-5.7-2.4-7.9-5.1c-0.4-0.2-0.6-0.4-0.8-0.6c-2.9-4.5-5.9-8.8-6.7-15.3c-0.6-0.6-0.4-3.5-0.6-4.1
		c0.2,0.2,0,0,0.2-0.2l-0.4-20.8c0,0-0.2-0.2-0.4-0.2c0.6-2.9,0.6-6.5,0.2-10.6c-0.2-4.9-1-10.2-1.2-14.7c-0.2-4.3,0.4-8.8-0.8-13.4
		c0-0.2,0-1,0.2-1.2v-9.6c0-1.4,0-2.4-0.8-3.1c0.6-0.8-0.4-3.7,0.2-5.1V46c-0.6-3.1-0.4-7.5-0.4-11.2c0-2.4-0.2-4.7-0.2-7.1
		c0-4.9,1-9.2,1-14.2C31,12,31.6,9.4,29.7,8.6c0-1.2,0.4-1.8-0.2-2.8c0.6,0.2,1.2,0.6,1.6,1c2.9,0.8,4.7,2.9,6.7,4.7
		c1.4,2,2.9,4.1,4.1,6.5c0.8,1.8,1.8,3.7,2.6,5.5c0,0.2,0.2,1.2,0,1.2c0.2,0.2,0.2,0,0.4,0C44.8,25.2,44.8,25.9,44.6,26.1"/>
	<path class="st0" d="M92.6,38.7c-0.2-0.6,0.2-1.4,0.4-2.2c-0.4-0.2,0-0.4-0.4-0.6c0.2-0.2,0.2-0.2,0.4,0c0-0.2-0.2-0.6,0.2-0.4
		c-0.2-0.2-0.2-0.2,0-0.4C93,35,93,34.8,92.8,35c0-0.4,0.4-0.6,0.2-1h0.2c0-0.4,0-0.8,0.2-1c0.6-1.8,1-3.3,1.4-5.1
		c0.2,0,0.2,0.2,0.2,0.2c0.8-0.2,2.4,0.4,3.3,0.8c1.8,1.4,3.9,3.1,4.9,5.3c0,0.2,0.2,0.8,0,0.8c2.4,11.2-16.9,7.7-10.6,4.5
		c-0.2,0,0-0.4-0.2-0.8H92.6z M89.8,63.7c0.2,0.6-0.2-0.8-0.4-0.2C89.6,63.5,89.8,63.5,89.8,63.7 M113.8,79.2
		c-0.6,0.6-1.4,1.6-1.2,2.6c-1.8,1.2-1.8,5.3-3.7,6.7c0,0-2,4.3-2.8,6.7c-1,2.8-1.4,4.7-2.9,5.9c-4.9,14.4-18.9,5.3-14.6-35
		c0-0.2,0-0.6,0.2-0.8c-0.2,0.2-0.2-1.2,0.2-1.2c-0.2-0.2,0-0.2-0.2-0.4c0.2,0,0.2,0,0.2-0.2c-0.2-0.2-0.2-1.6,0-2
		c-0.2,0.4,0.4-0.4,0,0c0.2-4.5,2-8.8,2.6-13.2H92c0.4,0.4,1,0.8,1.6,0.6c0.4,0,0.8,0.6,1,0.4c0,0,0.2,0.4,0.2,0.2
		c0.8,0.6,1.8,1,2.4,1.8c1.2,0.4,3.1,4.1,3.7,4.9c0,0.2-0.4,24.8-0.4,24.8c-0.4,0-1.4,8.8-2.2,9.2c0,0.2,0.2,0.2,0.4,0.2
		c-0.8,0.8-5.9,19.9,15.5-18.9c0.2-0.4-0.2-0.4-0.2-0.8c1.8-1.8,2.4-4.5,3.7-6.5c-0.2-0.4-0.2-0.6-0.4-0.8c0.6-0.6,1.2-1.4,1.6-2.2
		c0,1,0.6,5.9-0.2,6.5C119.5,73.3,114.4,75.3,113.8,79.2"/>
	<path class="st0" d="M169.7,113.6c3.7,29.7-20.6,64.5-48.6,79c-0.2-0.4-0.6-0.4-0.8-0.8c-1.8,0.6-5.3-0.2-7.1-0.4
		c-1.6-1.6-3.9-1.6-5.7-2.6c-1,0.4-1.4-0.4-2.2-0.2c0.4-1.2,0.8-3.5-0.4-4.3c0-0.4-0.2-0.8,0-1c-1.2-3.5,0-7.1-0.6-10.2
		c0.6-2.8,1.2-5.3,1.4-8.3c0.8-0.8,0-2.4,1-3.1c0.6,0.2,0.6,1,0.6,1.6c0,0.2,0.4,0.2,0.6,0.4c0.6,1.6,0.2,1.8,1,3.5
		c-0.4,1.2,0.4,2,0.8,3.3c0.6,2.6-0.4,5.5,1.2,8.1c-0.6,1.8,0.4,3.1,0.8,5.5c9.8,5.9,25-24.8,25-30.3c0.8,0.2,8.7-17.3,4.9-73.9
		c-0.6,0.4-1.8,1.4-1.6,2.6c-1.6,0.6-1.6,3-2.8,3.9c0.4,0.4-0.2,1,0.4,1.2c0,0.4-0.6,0-0.4-0.4c-1.4,2.4-2.4,4.7-5.1,6.1
		c-0.2,0.8-0.6,1.4-1.4,2c-2.2,0.4-3.3-0.8-5.1-0.6c-0.2-0.8-1.6-0.4-1.4-1.4c-0.2,0,0,0.2,0,0.4c-1-1.4-4.9-2-6.7-3.5
		c-0.4-0.4-1.6-2-2.2-2.9c-0.8-1.6-1-3.7-1.8-5.9c-1-6.1-2-11-0.6-14.4c2.9-4.7,6.3-9.6,12.4-11.8c0.6-0.4,1.2-1.4,2-1.4
		c0-0.4-0.4-0.2-0.2-0.6c1.8-1.4,3.1-3.1,4.5-4.7c0.4,0.2,0.8,0.6,1,1c2.2,0.8,6.7,2.6,6.9,6.1c0,0.8-0.6,1.4-0.4,2.4
		c-1.2,1.4-1.6,3.3-3.1,4.3c-0.6,3.9-8.5,14.5-6.5,20.3c-0.6,0.8-0.4,2-0.6,3.1c3.3-2.9,5.5-7.1,8.7-10.4c0-0.4,0.2-0.4-0.2-0.8
		l0.6-0.2c1-2.4,3.9-3.7,4.5-6.5c0.2-0.8,0-1.8,0.2-2.8c0.4-2.4,1-5.1,1.2-7.7c-0.2-0.8-0.4-1.4-0.2-1.8
		c23,12.4,19.1,22.4,26.2,57.4C170,113.2,169.9,113.4,169.7,113.6"/>
	<path class="st0" d="M182.4,137c-0.8,0-0.6,0.2-0.4,0.2C182,137,182.4,137.4,182.4,137 M251.8,110.1c-0.2,1-0.2,2.2-0.4,2.6
		c-0.2,0.8-3.3,11-7.1,17.7c-3.7,5.7-8.7,7.7-15.1-0.6c-3.7-4.5-4.1-12.4-3.9-18.3c0.2-5.5,0.6-11.6,1.6-16.9
		c0.4-2.4,0.6-5.1,0.6-7.9c0-1.6-0.2-3.1-0.2-4.3c-0.4-2.9-2-5.1-4.7-5.1c-1,0-2.2,0.8-3.1,1c-0.6,0.2-1.2,0.2-1.6,0.4
		c-1.8,1-2.2,3.5-3.9,4.1c0,1.4-1.2,2-1.8,2.8c-7.1,21.2-6.7,21.8-7.3,26.7c0,0.2-0.4,0.2-0.4,0.4c0.2,2.8-0.4,4.5,0,6.7
		c-0.4,0.4-0.6,0.8-0.4,1.4c-0.4,0.2,0.2,1.2-0.4,1c0.6,1-0.2,2.2-0.2,3.5c0,0.2-0.4,0-0.4,0.2c0.2,1,0.2,2-0.2,2.8
		c0.6,1.4,0.2,2.4,0.2,4.5c-0.2,0-0.6,6.1,0,7.9c-0.6,0.8-0.6,1.8-0.4,3.3c-0.6,0.8-0.8,1.8-0.4,2.9c-0.2-0.2-0.2-0.4-0.6-0.4
		c-0.4,0.8-1.2,1.2-1.6,2c0,0-0.6,1.6-15.3,1.6c-0.2-0.8-0.8-1-1.6-1.6c0.2-1-0.8-8.5-2-9c0.2-0.6,0.6-0.6,0.2-1.4
		c0.2-0.2,0.6-0.2,0.6-0.6c-0.2,0-0.2,0.2-0.2,0.4c-0.2-0.2,0.2-1.6-0.4-1.4c0,0,1.4-87.1,1.4-100.9c0-6.5-0.2-12.6-1-19.1
		c-0.4-2.4,0.4-6.5-1.2-8.7c-0.4-0.4-1.4-0.8-1.6-1.6c-0.4,0-0.8-0.2-1.2-0.4c1,0,2.2,0,3.3,0.2c0.6,0.2,1,0.6,1.6,0.8h1.2
		c0.2,0.2,0.2,0.4,0.4,0.6c1.2,0.6,2,0.6,2.9,1.4c0.2,0,0.2,0.4,0.2,0.4c0.4,0.4,1,0.4,1.2,0.6c0.2,0,0.2,0.4,0.2,0.4
		c0.8,0.6,1.6,0.8,1.8,1.8c0.4,0,0.4,0.2,0.6,0.2c9,12,14.5,72.7,12,72.9c0.4,0.2,0.6,0.6,0.2,1c1.2,1.2,0.6,2.9,0.6,4.7h-0.4
		c0.8,1.4,0.2,2.8,0.8,4.1c0.8-3.3,2.2-6.3,2.9-9.6c3.3-6.3,10.8-12.8,19.7-10.4c1.8,1.2,3.7,2.8,5.1,4.5v1
		c2.8,3.5,1.8,8.1,2.4,12.4c0,0,0,0.4-0.2,0.6c0.4,2.4-0.4,4.7-1,6.7c0,0.2,0.2,0.4,0.2,0.8c0,0.4-0.2,0.6-0.4,1
		c0.4,1.8-0.6,3.5-0.8,5.5c-0.2,1.8,0,3.5-0.2,5.5c-0.2,1.6-0.4,3-0.6,4.7v3.9c0.2,3.1,0.8,10.6,5.7,9.4c2.2-0.4,5.1-2.2,6.9-4.9
		c1.4-1.4,4.5-13,4.7-14.5c0.4-1.8,0.6-2.6,0.8-3.1c0.2,0,2.9-9.4,2.9-9.4c0.4-0.2,0.6-2.2,0.8-2.4c0.2,0.6,0.4,1.4,0.6,2.2
		c-0.2,0.2-0.4,2.6-0.6,3.1C253.2,101.8,251.8,110.1,251.8,110.1"/>
	<path class="st0" d="M312,24.8c0,1-0.4,2.4-1.2,2.9c0,0.2,0.2,0.4,0.2,0.6c-0.4,0.2-0.8,0.2-0.8,0.6c0.2,0.2,0,0.2,0,0.6
		c0,0.4-0.4,0-0.8,0c-0.2,0.2-0.2,0.2,0,0.2h-0.2c-0.2,0-2.6,0.8-2.8,0.8c-0.4,0.4-0.4,0.6-0.6,0.8l-10,1.6c-0.4,0-0.8-0.4-1.2-0.4
		c-0.4,0.2-0.6,0.6-1,0.8c-1,0.2-2,0.2-2.9,0.6c-0.4,0-0.4-0.4-0.6-0.4c-1.2,0.4-2,0.8-3.1,1c-2,1-7.1,1.8-12.4,1.2
		c-1.8,0-3.3,0.6-5.1,1c0,5.7,1.6,10.6,1.8,16.1c0,0.2,0.2,0.2,0.4,0.2c0,0,4.5,75.3,0.2,85.5c0,0.2,0,0.6,0.2,1
		c-1.6,1.8,2.4,2.6-9,9.8c-0.4,0-0.8,0-1-0.4c-1.2,1.4-3.1,0-3.9,1.2c-0.4-0.6-1.4-0.4-1.8-1c-1.8,1.4-2.6-1.2-4.1-1.6
		c0-0.4,0.2-0.4,0.4-0.8c-3.5-3.7,2.8-80,3.1-80.8c0-0.6-0.2-1.4,0-2.2c0-3.1,0.2-6.9,0.4-10.2c0.2-0.2,0.2-0.2,0.4-0.2
		c0.2-6.1,1-12,1.6-17.9c-1.8-0.4-3.3-0.4-4.7-1c-14.9,0.6-15.7,1.4-30.3-2.2c0-0.2-0.4-0.2-0.4-0.6c-1.8-0.6-2-2.9-2.8-4.3
		c-2.9-0.6-4.3-2.4-6.5-3.7c0-0.6-0.4-0.8-0.2-1.2c-0.2,0,0,0.2,0,0.2c-1.8-1.2-2-3.9-2.9-5.7c0.6-0.2,0.6,0.6,1.2,0.8
		c0.4-0.2,0.6-0.4,1-0.4c1.4,0,3.1,0.6,4.7,0.6c4.9-0.4,10.6,0.6,15.5,0.4c11-0.4,7.5,0.2,13.2,0.4c4.5,0.2,9,0,13.6,0
		c0.4-1.6,0.4-3.7,0.8-5.1c0.2-0.8,0-2,0.6-2.4c0-0.2-0.2-0.2-0.4-0.4c0.8-0.6,0.4-2-0.2-2.8c0-0.2,0.2-0.4,0.6-0.6
		c-0.6-1,0.4-1.6,1.4-1.6c0.4,0,0.4,0.4,0.8,0.4c1.8,0.8,3.3,0.2,3.7,2.4c2.8,2.2,1.2,7.1,1.6,9.4c0.8,0.2,1.8,0,3.1,0
		c0.2-0.2,0.2,0,0.2,0.2c0.2,0,0.2-0.4,0.4-0.2c0.6,0.2,1.4-0.2,2.2,0c1,0,2.2,0.2,3.3,0.2c2,0.2,3.9-0.2,5.7,0
		c1.2,0.2,2.8,0.2,4.1,0.4c6.5,0.4,13,1.8,20.1,1.8c0,0.4,0.4,0.2,0.4,0.4c1.2-0.4,2.8,0.2,4.3,0.4c-0.2,0.4-0.2,0.4,0,0.6
		c-1.2,0.2-0.2,2-1,2.6C311.4,24.6,311.8,24.6,312,24.8"/>
	<path class="st1" d="M313,67.2c-1.6,1.2-2,3.1-3.1,4.9v0.8c-0.2,0-0.4-0.2-0.4,0c-0.8,1-0.4,2.2-1.4,2.9v0.4c-0.2,1.2-1,2.6-1,3.7
		c0.6-1.2,1.6-2,2-3.3c1-1,1.8-2.2,2.4-3.1c0-0.2,0.2-0.4,0.4-0.6c0.8-0.8,1.6-2,2.2-2.9c0.2-0.4,0.4-0.8,0.8-0.8
		c0-0.4,0.2-0.4,0.2-0.6c1.2-1.2,1.8-2.6,2.8-3.9c1.6-2.2,2.9-4.5,3.1-7.9v-0.2c-1-0.2-1-1.2-2.4-1L313,66.5
		C313.2,66.8,313,66.8,313,67.2 M357.8,66.8c-0.4,0.8-0.6,1.8-1,2c-0.6,5.5-6.5,6.1-8.3,10c-1,0.4-2,1.2-2,2.2
		c-0.6,0.2-1,0.4-1.4,0.8c-0.2,1.2-10.4,15.3-12.4,15.3c-10.8,5.3-1.4,0-9.4,6.5c-3.7,1.6-6.7,3.9-10.6,3.9c-2.6-0.2-4.7-0.8-7.3-1
		c-6.1-3.7-11.2-8.5-12.6-15.7c-0.2-1-0.2-2-0.4-2.9v-0.2v-0.2v-0.2c-1.4-12.4,5.9-25.6,7.7-26.7c0.2-0.2,0,0,0.2-0.4
		c0.2-0.4,0.6-0.8,1.2-1.4c0.6-0.8,1.2-1.8,2-2.2c2.2-3.1,6.9-6.3,10.8-8.1c0.4-0.2,1.4-0.2,1.8,0c0,0,0.6,1,0.8,0.4
		c0.6,0.4,1,0.8,1.4,1c0.2,0.4,0.6,0.8,1.4,1c0,1,1,0.8,1.6,1c0.8,0.2,2.4,1.6,2.9,2.4l-0.2,0.2l0.4,0.2c3.3,3.3-3.9,15.7-4.1,16.5
		c-0.2,0-0.2-0.2-0.4-0.2c-0.4,1.8-3.1,4.5-3.1,4.5s-3.5,3.9-3.5,4.1H313c0,0.2-0.2,0.2-0.2,0.4c-0.4,0.4-0.8,1-1.2,1.4
		c-0.2,0-0.2,0.2-0.4,0.2c-0.2,0.2-0.2,0.2-0.4,0.4c-0.8,0.6-2,1.4-2,1.6c0.2,0.2-0.2,0.4-0.4,0.2c-0.4,0.8-1.6,0.4-2,1.6
		c0-0.2-0.2,0-0.2-0.2c-0.4,0.4-1,8.3-0.6,9c-0.2,0.2-0.2,0-0.2,0c0.4,1.4-1.2,0.8,2.8,5.5c2,0.6,3.7,1.2,5.5,0.8
		c2-0.2,4.5-1.2,6.5-2c4.1-2.4,7.9-6.3,7.9-6.3s0.2,0,0.4-0.2c0.2-0.2,0.6-0.4,0.8-0.6c1.4-1,3.7-3.1,4.7-3.9c1.2-1,2.2-1.8,3.1-2.8
		c2.4-2.2,4.7-4.3,6.9-6.7c2.4-2.4,4.7-4.5,7.1-6.9c0.2-0.4-0.2-0.4,0-0.8c2.2-1.4,3.7-3.9,5.7-5.5c0-0.4,0-0.6-0.2-0.8
		c0.8-0.6,1.6-1.2,2.2-2C358.6,63.7,358.2,65.3,357.8,66.8"/>
	<path class="st1" d="M413.7,82.6c0.6,3.7-2.8,5.1-3.3,7.9c-0.4,0.4-0.8,1.2-0.8,1.8c-1.4,0.8-1.4,3.7-2.6,4.7
		c0,0.2,0.2,0.2,0.2,0.4c-0.8,0.2-2.4,14.4-15.5,10.8c-1.8-1.2-3.1-2.9-3.9-4.7c-1.4-4.7-0.2-16.1,0.6-21.2
		c0.2-2.2,0.8-21.8,0.6-23.6c-0.4-1.8-1.4-3.7-2.6-5.3c-4.1,0.6-8.5,8.7-8.8,10c-2.8,2.4-3.9,12.6-6.7,14.7c0.2,0.6-0.2,0.6-0.4,1
		c0.2,0.2,0.2,1,0,1.2c0.2,0,0.2,0,0.4,0.4c-0.2,0.4-0.4,1,0,1.4c-1.4,8.1-2,33.6-3.3,35.4c0.2,0.4,0,0-0.2,0c0,1.4-2.8,1.4-2.4,2.4
		c-0.6-0.6-1.2-0.6-2-0.4c-0.2,0,0,0.4,0,0.6c-1.2,0-1.6-0.2-3.3-0.2c0,0.2,0.2,0.2,0.2,0.2c0.2,0.4-0.8,0-0.8-0.4
		c-0.8-0.2-1.4,0-1.6-0.6c-0.4,0.4-1-0.4-1.4-0.6c0-0.2,0.2-0.4,0.2-0.6c-1-2.9-2.4-15.5-2.8-15.7c0-1.6,0.2-2.8,0-4.7v-0.6
		c0.2,0,0.2-0.2,0.2-0.2l-0.2-0.2c0.2,0,0.2-0.2,0.2-0.4c0,0.2,0.2,0.2,0.4,0.2c0-1,0.2-2.8-0.2-3.9c0.2-0.2,0.2-0.2,0-0.2v-0.6
		c0.2-0.2,0.4-0.6,0-1c0-2.8-0.2-5.7-0.8-8.7c1.8-3.3,0.2-12,1.4-21c0.2-2.8,2.2-12.6,2.4-13.4c0.2-1.6,0.2-3.1,1.2-4.3
		c0.4-2.9,2.6-4.3,3.1-7.3c1.2,2,3.9,2,4.9,3.9c0.4,0.2,0.4,0.6,0.8,0.8c0.2,0.8,0.2,1.4,0.8,1.6c-0.4,0.8,0.4,1.6,0.6,2.2l1.6,27.3
		c3.7-5.1,6.7-17.3,13.4-19.5c1.2-1,3.1-1,4.9-0.8c4.1,0.8,6.5,3.9,7.9,7.7c-0.4,0.4,0.4,1.2-0.2,1.4c2.9,5.3-1.4,41.5-1.4,42.3
		c-0.2,1.4,0.6,2.4,1.4,3.3c2-0.2,3.3-2,4.3-3.1c4.1-5.5,7.3-11.6,10.6-17.7c0-0.2-0.2-0.2-0.2-0.4c1.2-1.2,1.6-3.1,2.6-4.5
		c0-0.2-0.2-0.4-0.2-0.6c0.4-0.4,1.2,0.6,1.2,1.6C413.9,81.8,414.1,82.4,413.7,82.6"/>
	<path class="st1" d="M439.8,131.3c-0.2,0.2-0.2,0.4-0.4,0.4c-0.2-0.2,0.2-0.2,0-0.4c0,0.4-0.7,0.4-0.2,0.4c0-0.2,0.4,0.7,0.7,0.2
		C439.6,131.8,440.1,131.5,439.8,131.3 M508.6,15.7c0.9,2.4,2.2,5.3,2.2,8.2c0.9,2.2,1.5,4.8,1.8,7c0.2,0,0.2-0.2,0.2-0.2
		c0,0.9,0.9,2.2,0.4,2.9c0,0-7.9,86.1-7.9,128c0,0.4-0.7,0.2-0.4,0.9c0.2-0.2,0-0.7,0.4-0.4c0,0.9,0.4,1.3,0.2,2.2
		c0,0.2,0.2,0,0.4,0c-0.2,1.1-0.9,0.4-0.9,1.8c-0.7-0.2-9,6.8-9.9,6.4c0,0.2-0.2,0.4-0.2,0.4c-13.2,4.4-14.5-14.8-14.1-19.2
		c-1.1-0.7,0-1.8-0.4-2.6l0.2,0.2c0.2-1.3,0-4.2,0-5.7c0.2-2.4,0.4-6.8,0.2-9.9c0.7-0.4-0.2-1.8,0.2-2.2c-0.2,0,0-0.2-0.2-0.7
		c0.7,0.2-0.2-0.4,0.2-0.7c0-0.2-0.2,0.2-0.2,0c-2.2,8.8-5.7,15.6-8.1,23.8c-0.2,0-0.2,0.2-0.4,0.2c0.2,0.9-0.4,2.4-1.1,2.2
		c-2,10.6-4.2,10.4-6.8,11.7c-0.2,0.7-0.7,0.2-1.3,0.4c-0.7,0.2-1.3,0.9-1.5,1.1l-0.4-0.2c-0.9,0.4-1.8,1.1-2.4,1.1
		c-3.3,0.9-6.8,1.3-10.1,0.9c-4.4-0.7-8.1-1.5-11-3.1c0,0-6.4-4.8-6.2-7.3c1.8-1.8-1.5-3.5-2-6.6c-0.7-0.7-1.5-2.6-1.8-3.3
		c0.2,0.2,0-0.2,0.4-0.2c-0.2-0.2-0.2,0-0.4,0c-7-17-2.9-51.8-2-50.9c0-0.2-0.2-0.2-0.4-0.2c0,0,0.2-0.4-0.2-0.4
		c0.2-0.2,0.2,0,0.4,0c0.2,0.2,0-0.2,0-0.2c0.2-0.9,0.4,0,0.4-1.1c-0.4,0.4,0.9-8.8,1.5-9.5c-0.4,0,0-0.4,0.2-1.1c0,0,0.2,0.2,0,0.4
		c0.4-0.4,0.7-2,0-2c2.9-1.5,10.6-39.4,11.7-41.9c0-1.1,2.6-15.4,4-15.4c1.1-3.7,4.8-8.6,4.8-8.6c0.9,0.4,2.2,1.3,2.9,2
		c0.2,0.2,0,0.2,0.2,0.2c1.1,0.4,2.9,2.2,3.5,3.1c1.1,1.8,2.4,4,2.9,5.9c4.6,17.6,3.1,10.6,4,18.3c0.4,7-2.4,21.1-2.4,21.1
		c-7.7,27.8-11,44.5-11,44.5c0.2,0.2,0.2,16.1,0,16.1c0.4,2.2,0.7,17.2,4.8,22.7c1.1,1.5,2,2,4,2.4c1.1,0.2,2.4,1.1,4,0.7
		c2.6-0.2,3.7-4.4,4.8-6.6c1.3-2.9,3.1-5.7,4.2-8.8c2.2-5.5,5.1-11.7,6.8-17.2c0.2-0.4,0.4-0.9,0.9-1.1c0.7-2.6,1.5-4.8,2.9-7
		c0.7-3.7,3.3-7.3,3.5-11.9c0.2,0.2,0.2,0,0.4,0c0.4-11.5,4.8-30.8,5.3-36.1c0.7-0.4,0.2-2.2,0.4-3.3c0-0.9,0.4-2,0.4-2.9
		c0-1.1,0.9-11.7,1.5-11.9c-0.4-1.3,0.4-2.4,0.7-3.7l3.5-26.2c0.4,0,0.7-0.4,0.4-0.9c0.4,0,0.2-0.2,0.4-0.4
		c-0.4-0.9,1.5-4.2,1.5-6.4c0.4-0.2,0.7-0.2,1.1-0.4c-0.2,0-0.2-0.2-0.2-0.4c0.4,0.2,0.2,0.2,0.9,0.2c0.4,0-0.2-0.2,0-0.4
		c0.2-0.2,0.4,0.4,0.4-0.2c0.7,0.4,0.9,0.7,1.8,0.2c0-0.4-0.2-1.1-0.2-1.3c0.2-0.2,0.7,0.2,0.7,0.4C505.5,13,507.2,13.9,508.6,15.7"
		/>
	<path class="st1" d="M543.6,184.3c0-0.4,0.4,0,0.4-0.4c0,0-0.2,0,0,0v-0.2c-0.2,0.2-0.4,0.2-0.4,0.4c0-0.2-0.2-0.2-0.2,0
		C543.6,184.1,543.4,184.3,543.6,184.3 M563.8,113.6c0.4-0.2,0.7-0.7,1.3-1.1c1.5-0.9,2.6-2.6,4-3.7c1.5-3.1,4.2-5.3,4-9
		c-0.2-2.9-2-5.7-3.7-7.7c-8.4-9.5-24.7-9-26.2-1.1c0,0.4,0.4,1.8,0.4,2.6c-0.2,2.9,0.9,13.9,0.9,14.5c0,0-0.4,6.2-0.4,6.4
		c0.2,0.4-0.2,3.1,0,3.7c0-0.2,0-0.2,0.2,0c-0.7,0.9-0.2,2.9-0.7,4.8c0.4,0.4,0,1.1,0.4,1.8c0.7-0.7,1.5-0.9,2.6-1.3
		c-0.2-2.2-0.4-6.2-0.4-8.4c-0.7-2.6,0.2-4.4-0.2-6.6c0.2,0,0.2-0.4,0.7-0.4c0.4,1.3,0.2,3.3,0.2,5.9c0.9,3.1,0,5.7,0.4,9
		c3.1-1.1,5.9-2.6,8.6-4.2c0.7-0.7,1.5-1.3,2.2-2C559.7,115.5,562.1,114.9,563.8,113.6 M539.4,205c-0.2,0.2-0.2,0.2-0.2,0.4
		c0.2,0.2,0.7-0.2,0.4-0.4C539.4,205.2,539.4,205.2,539.4,205 M526.8,214.9h0.4c-6.6-6.6-0.2-0.4-0.2-0.2c-0.2,0.2-0.4-0.2-0.4,0
		C526.8,214.7,526.6,214.9,526.8,214.9 M525.1,71.3c0-0.2-0.2,0-0.2-0.2c0.9-3.3-5.1-5.3,5.9-3.5c-0.2,0.2-0.2,0.2-0.4,0.2
		c0.2,0.2,0.2,0.2,0.4,0.4c0.2-0.2,0.2-0.4,0.4-0.2c0,0,4.4,3.1,6.4,5.5c0.7,1.3,1.8,2.4,2.6,3.5v0.9c0.4,0.2,0.4,1.1,0.9,1.5
		c4.2-0.2,8.8-0.7,13.2-0.7c7.3,0.2,14.1,2.4,19.4,5.9c0.2,0.9,1.1,1.3,1.8,1.5c0.7,1.5,2.9,2.9,3.3,4.2c0-0.2,0-0.2,0.2-0.2
		c0.4,0.7,0.7,1.3,0.9,1.1c1.5,2.6,2.9,6.2,3.1,9.9c-0.2,0.2-0.4,0.9-0.2,1.3c-15,18.5-32.4,27.1-35.9,27.3v-0.4
		c0,0-0.2,0.7-0.2,0.2c-5.1,5.1,1.1,51.1-2.9,51.1c0,0-0.2-0.4-0.2,0c-0.2,0.7,0.2,0.4,0.7,1.3c0-0.2,0-0.4-0.2-0.2
		c-0.4,0,0.2,0,0,0.4c-0.2,0-0.2-0.2-0.2-0.2c-0.2,0.4,0.2,0.2,0.4,0.2c-0.4,0.2,0.2,0.9-0.2,0.7c-0.2,0.4,0.4,0.4,0.2,0.4
		c0,0.2,0.4-0.2,0.4,0.2c0,0.2-0.2,0-0.2,0l0.2,21.6c-0.2,0,0-0.4-0.2-0.7c0,0.2,0,0.9-0.4,0.4c0,0,0.2,0.2,0,0.2
		c0,14.1,1.5,3.1,1.5,9.9c1.3-1.1,0.2-0.7,0.7,0.9c-0.2,0-0.2-0.2-0.2-0.2c0.4,1.1,0.9,8.8-4.2,8.8c-0.9-0.7-1.1-2.4-2.4-2.9
		c0,0,0,0.4,0.2,0.2c0.2,0,0,0.4,0,0.4h-0.2c0,0.7,0,0.7,0.7,1.1c-0.4,0.9,0.9,4.2-2,4.2c0.9-0.9-0.4,0-0.4-0.9
		c-0.2,0.2-0.2,0.2-0.4,0.2c0.4,0.4,0,0.9,0.4,1.3c-0.7,0-0.9-0.4-1.5-0.4c-0.2,0-0.2,0.2-0.2,0.2c-8.6,0-9.9-8.6-9.3-10.8
		c-0.2,0.2-0.2,0-0.4-0.2c0.7,0.2-0.2-0.4,0.4-0.4v-1.3c0.2,0,0,0.2,0.2,0.2v-0.2c0.4,0.2,0,0.4,0,0.7c0.2,0,0.4-0.7,0.7-0.4v-0.2
		c-0.2,0.2-0.4,0.2-0.4-0.2c-2.2,3.3,0.2-46.9-0.4-50.4c-0.2,0-0.2,0.2-0.4,0.2c0,0-0.9-36.6-0.4-38.3c-0.7-7.5-0.2-18.3-0.7-25.3
		c0-0.2,0,0,0,0c0-7.9-0.2-16.5,0-17.6l-0.2-0.2c-0.9,0-1.5-0.4,0-0.2C525.1,78.8,525.1,75.5,525.1,71.3"/>
</g>
<polygon class="st2" points="295.2,140.5 297.5,140.5 304.2,158 304.3,158 311,140.5 313.3,140.5 313.3,160.3 311.8,160.3 
	311.8,142.3 311.6,142.3 304.7,160.3 303.6,160.3 296.7,142.3 296.6,142.3 296.6,160.3 295.2,160.3 "/>
<polygon class="st2" points="326.6,140.5 338.4,140.5 338.4,141.7 328.1,141.7 328.1,149.4 335.9,149.4 335.9,150.7 328.1,150.7 
	328.1,159 338.8,159 338.8,160.3 326.6,160.3 "/>
<polygon class="st2" points="350.7,140.5 352.6,140.5 363.6,157.6 363.6,157.6 363.6,140.5 365.1,140.5 365.1,160.3 363.6,160.3 
	352.2,142.5 352.1,142.5 352.1,160.3 350.7,160.3 "/>
<g>
	<defs>
		<rect id="SVGID_3_" x="29.5" y="5.9" width="553.6" height="222.4"/>
	</defs>
	<clipPath id="SVGID_4_">
		<use xlink:href="#SVGID_3_"  style="overflow:visible;"/>
	</clipPath>
	<path class="st3" d="M391.3,153.6v-13.2h1.4v13.1c0,5-3.1,6.8-7.2,6.8c-4,0-7.3-1.8-7.3-6.8v-13.1h1.5v13.2c0,4.2,2.7,5.5,5.9,5.5
		C388.8,159.2,391.3,158,391.3,153.6"/>
	<path class="st4" d="M122,20.8c1.3-1.1,3.1-2,5.2-2c2.2,0,3.9,0.9,3.9,4.1v10.6h-4.9v-9.3c0-1.3-0.5-1.6-1.7-1.6
		c-0.9,0-1.7,0.2-2.4,0.5v10.4h-4.9V19h3.4C121.4,19,121.8,19.3,122,20.8"/>
	<path class="st4" d="M138,24.8h4.5c-0.1-2.2-0.8-2.9-2.1-2.9C139.2,21.8,138.2,22.4,138,24.8 M137.9,27.4c0.2,2.4,1.4,3.1,3.4,3.1
		c1.6,0,2.8-0.5,3.7-1.1h1.5v2.9c-1.3,0.7-3,1.4-6,1.4c-5,0-7.6-2.8-7.6-7.4c0-4.6,3-7.5,7.4-7.5c4.5,0,6.8,2.4,6.8,7.3
		c0,0.6-0.1,1.1-0.1,1.3H137.9z"/>
</g>
<polygon class="st5" points="147.9,20.2 147.9,19 152.6,19 154.7,27.4 154.7,27.4 157.2,19 160.8,19 163.1,27.4 163.2,27.4 
	165.4,19 169.4,19 169.4,20.2 165.3,33.5 160.9,33.5 158.6,25.5 158.6,25.5 156.1,33.5 151.8,33.5 "/>
</svg>
